<?xml version="1.0" encoding="utf-8"?>
<!-- Generator: Adobe Illustrator 22.0.0, SVG Export Plug-In . SVG Version: 6.00 Build 0)  -->
<svg version="1.1" id="Слой_1" xmlns="http://www.w3.org/2000/svg" xmlns:xlink="http://www.w3.org/1999/xlink" x="0px" y="0px"
	 viewBox="0 0 555.8 197.8" style="enable-background:new 0 0 555.8 197.8;" xml:space="preserve">
<style type="text/css">
	.st0{fill:#FFFDFD;}
	.st1{fill:none;stroke:#FFFFFF;stroke-miterlimit:10;}
	.st2{display:none;}
	.st3{display:inline;fill:#FFFFFF;}
</style>
<g>
	<path class="st0" d="M35.5,96.3c0.7,0,1.1,0.3,1.1,1c0,0.7-0.4,1.1-1.1,1.1H2.3c-0.5,0-0.8-0.1-0.9-0.3c-0.1-0.2-0.2-0.4-0.2-0.7
		V44c0-0.7,0.4-1,1.1-1c0.7,0,1,0.3,1,1v52.3L35.5,96.3L35.5,96.3z"/>
	<path class="st0" d="M44.6,44c0-0.7,0.4-1,1.1-1c0.7,0,1,0.3,1,1v53.4c0,0.7-0.3,1.1-1,1.1c-0.7,0-1.1-0.4-1.1-1.1V44z"/>
	<path class="st0" d="M96.3,43c0.8,0,1.2,0.3,1.2,1c0,0.7-0.4,1.1-1.2,1.1H77.6v52.3c0,0.7-0.3,1.1-1,1.1c-0.7,0-1.1-0.4-1.1-1.1
		V45.1H56.6c-0.7,0-1-0.4-1-1.1c0-0.7,0.3-1,1-1L96.3,43L96.3,43z"/>
	<path class="st0" d="M146.5,43.5c0.1-0.4,0.3-0.6,0.5-0.7c0.2-0.1,0.5-0.1,0.8,0.1c0.7,0.2,0.9,0.6,0.7,1.3L126,98
		c-0.2,0.4-0.5,0.6-1,0.6c-0.2,0.1-0.5,0-0.7-0.1s-0.3-0.3-0.4-0.7l-22.4-53.5c-0.3-0.7-0.1-1.1,0.6-1.3c0.6-0.3,1.1-0.2,1.3,0.4
		L125,94.9L146.5,43.5z"/>
	<path class="st0" d="M156.3,44c0-0.7,0.4-1,1.1-1c0.7,0,1,0.3,1,1v53.4c0,0.7-0.3,1.1-1,1.1c-0.7,0-1.1-0.4-1.1-1.1V44z"/>
	<path class="st0" d="M213.8,44c0-0.7,0.3-1,1-1c0.7,0,1.1,0.3,1.1,1v53.6c-0.1,0.5-0.4,0.8-1,0.8c-0.3,0-0.5-0.1-0.7-0.1
		s-0.3-0.2-0.4-0.3l-41.2-50.7v50.1c0,0.7-0.3,1.1-1,1.1c-0.7,0-1.1-0.4-1.1-1.1V44c0-0.3,0.1-0.6,0.2-0.8c0.1-0.2,0.3-0.3,0.7-0.3
		c0.2,0,0.4,0,0.5,0.1s0.2,0.2,0.4,0.3l41.6,50.7L213.8,44L213.8,44z"/>
	<path class="st0" d="M265.3,43c0.8,0,1.2,0.3,1.2,1c0,0.7-0.4,1.1-1.2,1.1h-35.1v23.6h28.8c0.8,0,1.2,0.4,1.2,1.1
		c0,0.7-0.4,1-1.2,1h-28.8v25.6h35.9c0.8,0,1.2,0.3,1.2,1c0,0.7-0.4,1.1-1.2,1.1h-37.3c-0.1,0-0.1,0-0.2,0c-0.1,0-0.1,0-0.2,0l0-0.1
		h0c-0.2-0.1-0.3-0.5-0.3-0.9V44c0-0.3,0-0.5,0.1-0.6c0,0,0.1-0.1,0.1-0.1c0.1-0.1,0.2-0.2,0.3-0.2c0.2-0.1,0.4-0.1,0.7-0.1H265.3z"
		/>
	<path class="st0" d="M317.7,44c0-0.7,0.3-1,1-1c0.7,0,1.1,0.3,1.1,1v53.6c-0.1,0.5-0.4,0.8-1,0.8c-0.3,0-0.5-0.1-0.7-0.1
		s-0.3-0.2-0.4-0.3l-41.2-50.7v50.1c0,0.7-0.3,1.1-1,1.1c-0.7,0-1.1-0.4-1.1-1.1V44c0-0.3,0.1-0.6,0.2-0.8c0.1-0.2,0.3-0.3,0.7-0.3
		c0.2,0,0.4,0,0.5,0.1s0.2,0.2,0.4,0.3l41.6,50.7L317.7,44L317.7,44z"/>
	<path class="st0" d="M366.5,43.4c0.4-0.4,1-0.5,1.6-0.1c0.4,0.5,0.5,1,0.1,1.5L348.3,66L374,96.5c0.5,0.6,0.4,1.1-0.1,1.6
		c-0.6,0.4-1.1,0.4-1.5-0.1l-25.5-30.5l-13,13.7v16.2c0,0.7-0.3,1.1-1,1.1c-0.7,0-1.1-0.4-1.1-1.1V44c0-0.7,0.4-1,1.1-1
		c0.7,0,1,0.3,1,1v34.3L366.5,43.4z"/>
	<path class="st0" d="M379.8,70.8c0-2.6,0.3-5.1,1-7.5s1.6-4.7,2.9-6.8c1.2-2.1,2.7-4,4.4-5.7s3.6-3.2,5.7-4.4
		c2.1-1.2,4.4-2.2,6.8-2.9c2.4-0.7,4.9-1,7.5-1c2.6,0,5.1,0.3,7.5,1c2.4,0.7,4.7,1.6,6.8,2.9c2.1,1.2,4,2.7,5.7,4.4s3.2,3.6,4.4,5.7
		c1.2,2.1,2.2,4.4,2.9,6.8c0.7,2.4,1,4.9,1,7.5s-0.3,5.1-1,7.5c-0.7,2.4-1.6,4.7-2.9,6.8c-1.2,2.1-2.7,4-4.4,5.7s-3.6,3.2-5.7,4.4
		c-2.1,1.2-4.4,2.2-6.8,2.9c-2.4,0.7-4.9,1-7.5,1c-2.6,0-5.1-0.3-7.5-1c-2.4-0.7-4.7-1.6-6.8-2.9s-4-2.7-5.7-4.4s-3.2-3.6-4.4-5.7
		c-1.2-2.1-2.2-4.3-2.9-6.8C380.1,75.9,379.8,73.4,379.8,70.8z M382,70.8c0,2.4,0.3,4.7,0.9,6.9c0.6,2.2,1.5,4.3,2.6,6.2
		c1.1,1.9,2.5,3.7,4.1,5.3s3.3,2.9,5.3,4.1c1.9,1.1,4,2,6.2,2.6s4.5,0.9,6.9,0.9s4.7-0.3,6.9-0.9c2.2-0.6,4.3-1.5,6.2-2.6
		c1.9-1.1,3.7-2.5,5.3-4.1c1.6-1.6,3-3.3,4.1-5.3c1.1-1.9,2-4,2.6-6.2c0.6-2.2,0.9-4.5,0.9-6.9s-0.3-4.7-0.9-6.9
		c-0.6-2.2-1.5-4.3-2.6-6.2c-1.1-1.9-2.5-3.7-4.1-5.3c-1.6-1.6-3.4-3-5.3-4.1c-1.9-1.1-4-2-6.2-2.7c-2.2-0.6-4.5-0.9-6.9-0.9
		s-4.7,0.3-6.9,0.9c-2.2,0.6-4.3,1.5-6.2,2.7c-1.9,1.1-3.7,2.5-5.3,4.1c-1.6,1.6-2.9,3.4-4.1,5.3c-1.1,1.9-2,4-2.6,6.2
		C382.3,66.1,382,68.4,382,70.8z"/>
</g>
<circle class="st1" cx="457.4" cy="98.4" r="98.4"/>
<circle class="st1" cx="359.4" cy="99.4" r="98.4"/>
<polygon class="st1" points="359,99.5 458,99.5 407.5,13.6 "/>
<g class="st2">
	<path class="st3" d="M15.1,134c0,2.5-0.6,4.5-1.8,6.1c-1.2,1.5-2.8,2.3-5,2.3c-1.1,0-2-0.2-2.8-0.5c-0.8-0.4-1.5-0.9-2.1-1.6v8.5
		H0.3v-24h2.4l0.5,2.2c0.6-0.8,1.3-1.5,2.1-1.9c0.8-0.4,1.8-0.7,2.9-0.7c2.1,0,3.8,0.9,5,2.6s1.8,4,1.8,6.8L15.1,134L15.1,134z
		 M11.9,133.7c0-2-0.4-3.6-1.2-4.8c-0.8-1.3-1.9-1.9-3.4-1.9c-0.9,0-1.7,0.2-2.3,0.6s-1.2,1-1.6,1.7v8.4c0.4,0.7,0.9,1.3,1.6,1.7
		s1.4,0.6,2.4,0.6c1.5,0,2.6-0.5,3.4-1.6c0.8-1.1,1.2-2.5,1.2-4.2C11.9,134,11.9,133.7,11.9,133.7z"/>
	<path class="st3" d="M29.6,142c-0.1-0.5-0.2-1-0.2-1.4s-0.1-0.8-0.1-1.2c-0.6,0.8-1.4,1.5-2.3,2.1c-0.9,0.6-2,0.8-3.1,0.8
		c-1.8,0-3.2-0.5-4.1-1.4c-0.9-0.9-1.4-2.2-1.4-3.8c0-1.7,0.7-3,2-3.9c1.3-0.9,3.2-1.4,5.5-1.4h3.4v-1.7c0-1-0.3-1.8-0.9-2.4
		c-0.6-0.6-1.5-0.9-2.6-0.9c-1,0-1.9,0.3-2.5,0.8c-0.6,0.5-0.9,1.1-0.9,1.8l-3,0l0-0.1c-0.1-1.3,0.5-2.4,1.8-3.5
		c1.3-1,2.9-1.6,4.9-1.6c2,0,3.5,0.5,4.7,1.5c1.2,1,1.8,2.4,1.8,4.3v8.4c0,0.6,0,1.2,0.1,1.8c0.1,0.6,0.2,1.1,0.4,1.7H29.6z
		 M24.4,139.7c1.1,0,2.2-0.3,3.1-0.9c0.9-0.6,1.5-1.3,1.8-2V134h-3.5c-1.3,0-2.3,0.3-3.1,1c-0.8,0.6-1.1,1.4-1.1,2.3
		c0,0.8,0.2,1.4,0.7,1.8C22.7,139.5,23.4,139.7,24.4,139.7z"/>
	<path class="st3" d="M43.7,131.9c1.2,0,2.1-0.2,2.7-0.6c0.6-0.4,0.9-1,0.9-1.8c0-0.7-0.3-1.3-1-1.8s-1.6-0.8-2.8-0.8
		c-1.1,0-2,0.3-2.7,0.8c-0.7,0.5-1.1,1.2-1.1,1.9h-3l0-0.1c-0.1-1.5,0.6-2.7,1.9-3.6s3-1.4,5-1.4c2.1,0,3.8,0.4,5.1,1.3
		c1.2,0.9,1.9,2.1,1.9,3.7c0,0.8-0.3,1.5-0.8,2.1c-0.5,0.7-1.2,1.2-2.2,1.5c1,0.3,1.9,0.9,2.4,1.5c0.6,0.7,0.8,1.5,0.8,2.5
		c0,1.6-0.7,2.9-2,3.8c-1.3,0.9-3.1,1.4-5.2,1.4c-2,0-3.7-0.5-5.1-1.4c-1.4-0.9-2.1-2.2-2-4l0-0.1h3c0,0.8,0.4,1.5,1.2,2.1
		s1.8,0.9,3,0.9c1.3,0,2.2-0.3,3-0.8c0.7-0.5,1.1-1.2,1.1-2c0-0.9-0.3-1.6-1-2c-0.7-0.4-1.6-0.6-2.9-0.6h-3.3v-2.6L43.7,131.9
		L43.7,131.9z"/>
	<path class="st3" d="M69.4,134c0,2.5-0.6,4.5-1.8,6.1c-1.2,1.5-2.8,2.3-5,2.3c-1.1,0-2-0.2-2.8-0.5c-0.8-0.4-1.5-0.9-2.1-1.6v8.5
		h-3.2v-24h2.4l0.5,2.2c0.6-0.8,1.3-1.5,2.1-1.9c0.8-0.4,1.8-0.7,2.9-0.7c2.1,0,3.8,0.9,5,2.6s1.8,4,1.8,6.8L69.4,134L69.4,134z
		 M66.3,133.7c0-2-0.4-3.6-1.2-4.8c-0.8-1.3-1.9-1.9-3.4-1.9c-0.9,0-1.7,0.2-2.3,0.6s-1.2,1-1.6,1.7v8.4c0.4,0.7,0.9,1.3,1.6,1.7
		s1.4,0.6,2.4,0.6c1.5,0,2.6-0.5,3.4-1.6c0.8-1.1,1.2-2.5,1.2-4.2C66.3,134,66.3,133.7,66.3,133.7z"/>
	<path class="st3" d="M84,142c-0.1-0.5-0.2-1-0.2-1.4s-0.1-0.8-0.1-1.2c-0.6,0.8-1.4,1.5-2.3,2.1c-0.9,0.6-2,0.8-3.1,0.8
		c-1.8,0-3.2-0.5-4.1-1.4c-0.9-0.9-1.4-2.2-1.4-3.8c0-1.7,0.7-3,2-3.9c1.3-0.9,3.2-1.4,5.5-1.4h3.4v-1.7c0-1-0.3-1.8-0.9-2.4
		c-0.6-0.6-1.5-0.9-2.6-0.9c-1,0-1.9,0.3-2.5,0.8c-0.6,0.5-0.9,1.1-0.9,1.8l-3,0l0-0.1c-0.1-1.3,0.5-2.4,1.8-3.5
		c1.3-1,2.9-1.6,4.9-1.6c2,0,3.5,0.5,4.7,1.5c1.2,1,1.8,2.4,1.8,4.3v8.4c0,0.6,0,1.2,0.1,1.8c0.1,0.6,0.2,1.1,0.4,1.7H84z
		 M78.7,139.7c1.1,0,2.2-0.3,3.1-0.9c0.9-0.6,1.5-1.3,1.8-2V134h-3.5c-1.3,0-2.3,0.3-3.1,1c-0.8,0.6-1.1,1.4-1.1,2.3
		c0,0.8,0.2,1.4,0.7,1.8C77.1,139.5,77.8,139.7,78.7,139.7z"/>
	<path class="st3" d="M99,124.4c2.2,0,4,0.8,5.2,2.5s1.9,3.8,1.9,6.3v0.4c0,2.6-0.7,4.7-2.1,6.3c-1.4,1.6-3.3,2.5-5.7,2.5
		s-4.3-0.8-5.7-2.5c-1.4-1.6-2.1-3.8-2.1-6.3v-0.4c0-0.1,0-0.2,0-0.2s0-0.1,0-0.2V129c0-3.3,0.7-5.7,2-7.3c1.3-1.6,3.3-2.4,5.8-2.5
		c1.5-0.1,2.6-0.3,3.4-0.6c0.8-0.3,1.2-0.8,1.2-1.5h2.4l0,0.1c0.1,1.7-0.5,2.9-1.7,3.6c-1.2,0.7-2.9,1-5.1,1.1
		c-1.6,0-2.9,0.5-3.9,1.3s-1.5,2.1-1.4,3.8l0,0.1c0.6-0.8,1.4-1.5,2.4-2C96.8,124.6,97.9,124.4,99,124.4z M98.4,126.9
		c-1.5,0-2.6,0.6-3.4,1.8c-0.8,1.2-1.2,2.7-1.2,4.5v0.4c0,1.8,0.4,3.4,1.2,4.6c0.8,1.2,1.9,1.8,3.4,1.8c1.5,0,2.6-0.6,3.4-1.8
		s1.2-2.7,1.2-4.6v-0.4c0-1.8-0.4-3.3-1.2-4.5C101,127.5,99.9,126.9,98.4,126.9z"/>
	<path class="st3" d="M108.8,133.2c0-2.6,0.7-4.7,2.1-6.3s3.3-2.5,5.7-2.5c2.4,0,4.3,0.8,5.7,2.5c1.4,1.7,2.1,3.8,2.1,6.3v0.4
		c0,2.6-0.7,4.7-2.1,6.3c-1.4,1.6-3.3,2.5-5.7,2.5s-4.3-0.8-5.7-2.5c-1.4-1.6-2.1-3.8-2.1-6.3V133.2z M111.9,133.6
		c0,1.8,0.4,3.4,1.2,4.6s1.9,1.8,3.5,1.8c1.5,0,2.6-0.6,3.4-1.8s1.2-2.7,1.2-4.6v-0.4c0-1.8-0.4-3.3-1.2-4.5
		c-0.8-1.2-1.9-1.8-3.5-1.8c-1.5,0-2.6,0.6-3.4,1.8c-0.8,1.2-1.2,2.7-1.2,4.5V133.6z"/>
	<path class="st3" d="M141.2,127.1h-5.7V142h-3.2v-14.9h-5.6v-2.5h14.5L141.2,127.1L141.2,127.1z"/>
	<path class="st3" d="M149.6,134.7h-1.6v7.4h-3.2v-17.3h3.2v7.3h1.3l6.2-7.3h3.7l0,0.1L152,133l7.7,8.9l0,0.1h-3.9L149.6,134.7z"/>
	<path class="st3" d="M173.2,142c-0.1-0.5-0.2-1-0.2-1.4s-0.1-0.8-0.1-1.2c-0.6,0.8-1.4,1.5-2.3,2.1c-0.9,0.6-2,0.8-3.1,0.8
		c-1.8,0-3.2-0.5-4.1-1.4c-0.9-0.9-1.4-2.2-1.4-3.8c0-1.7,0.7-3,2-3.9c1.3-0.9,3.2-1.4,5.5-1.4h3.4v-1.7c0-1-0.3-1.8-0.9-2.4
		c-0.6-0.6-1.5-0.9-2.6-0.9c-1,0-1.9,0.3-2.5,0.8c-0.6,0.5-0.9,1.1-0.9,1.8l-3,0l0-0.1c-0.1-1.3,0.5-2.4,1.8-3.5
		c1.3-1,2.9-1.6,4.9-1.6c2,0,3.5,0.5,4.7,1.5c1.2,1,1.8,2.4,1.8,4.3v8.4c0,0.6,0,1.2,0.1,1.8c0.1,0.6,0.2,1.1,0.4,1.7H173.2z
		 M168,139.7c1.1,0,2.2-0.3,3.1-0.9c0.9-0.6,1.5-1.3,1.8-2V134h-3.5c-1.3,0-2.3,0.3-3.1,1c-0.8,0.6-1.1,1.4-1.1,2.3
		c0,0.8,0.2,1.4,0.7,1.8C166.3,139.5,167,139.7,168,139.7z"/>
	<path class="st3" d="M199.7,124.7h3.2V142h-3.2v-12.3l-0.1,0l-7.7,12.3h-3.1v-17.3h3.1V137l0.1,0L199.7,124.7z"/>
	<path class="st3" d="M222.5,139.9c1,0,1.8-0.3,2.5-1s1.1-1.4,1.1-2.4h2.9l0,0.1c0,1.5-0.6,2.8-1.9,4c-1.3,1.2-2.9,1.7-4.6,1.7
		c-2.4,0-4.3-0.8-5.6-2.5s-2-3.7-2-6.2V133c0-2.4,0.7-4.5,2-6.2s3.2-2.5,5.6-2.5c1.9,0,3.5,0.6,4.8,1.8c1.2,1.2,1.8,2.7,1.8,4.4
		l0,0.1h-2.9c0-1.1-0.3-2-1-2.7c-0.7-0.7-1.6-1.1-2.6-1.1c-1.5,0-2.7,0.6-3.4,1.8c-0.7,1.2-1.1,2.7-1.1,4.4v0.7c0,1.7,0.4,3.2,1,4.4
		S220.9,139.9,222.5,139.9z"/>
	<path class="st3" d="M232,133.2c0-2.6,0.7-4.7,2.1-6.3s3.3-2.5,5.7-2.5c2.4,0,4.3,0.8,5.7,2.5c1.4,1.7,2.1,3.8,2.1,6.3v0.4
		c0,2.6-0.7,4.7-2.1,6.3c-1.4,1.6-3.3,2.5-5.7,2.5s-4.3-0.8-5.7-2.5c-1.4-1.6-2.1-3.8-2.1-6.3V133.2z M235.2,133.6
		c0,1.8,0.4,3.4,1.2,4.6s1.9,1.8,3.5,1.8c1.5,0,2.6-0.6,3.4-1.8s1.2-2.7,1.2-4.6v-0.4c0-1.8-0.4-3.3-1.2-4.5
		c-0.8-1.2-1.9-1.8-3.5-1.8c-1.5,0-2.6,0.6-3.4,1.8c-0.8,1.2-1.2,2.7-1.2,4.5V133.6z"/>
	<path class="st3" d="M265.5,142h-3.2v-14.8h-7.7V142h-3.2v-17.3h14.1L265.5,142L265.5,142z"/>
	<path class="st3" d="M284.8,134c0,2.5-0.6,4.5-1.8,6.1c-1.2,1.5-2.8,2.3-5,2.3c-1.1,0-2-0.2-2.8-0.5c-0.8-0.4-1.5-0.9-2.1-1.6v8.5
		h-3.2v-24h2.4l0.5,2.2c0.6-0.8,1.3-1.5,2.1-1.9c0.8-0.4,1.8-0.7,2.9-0.7c2.1,0,3.8,0.9,5,2.6s1.8,4,1.8,6.8V134z M281.7,133.7
		c0-2-0.4-3.6-1.2-4.8c-0.8-1.3-1.9-1.9-3.4-1.9c-0.9,0-1.7,0.2-2.3,0.6s-1.2,1-1.6,1.7v8.4c0.4,0.7,0.9,1.3,1.6,1.7
		s1.4,0.6,2.4,0.6c1.5,0,2.6-0.5,3.4-1.6c0.8-1.1,1.2-2.5,1.2-4.2V133.7z"/>
	<path class="st3" d="M288,133.2c0-2.6,0.7-4.7,2.1-6.3s3.3-2.5,5.7-2.5c2.4,0,4.3,0.8,5.7,2.5c1.4,1.7,2.1,3.8,2.1,6.3v0.4
		c0,2.6-0.7,4.7-2.1,6.3c-1.4,1.6-3.3,2.5-5.7,2.5s-4.3-0.8-5.7-2.5c-1.4-1.6-2.1-3.8-2.1-6.3V133.2z M291.1,133.6
		c0,1.8,0.4,3.4,1.2,4.6s1.9,1.8,3.5,1.8c1.5,0,2.6-0.6,3.4-1.8s1.2-2.7,1.2-4.6v-0.4c0-1.8-0.4-3.3-1.2-4.5
		c-0.8-1.2-1.9-1.8-3.5-1.8c-1.5,0-2.6,0.6-3.4,1.8c-0.8,1.2-1.2,2.7-1.2,4.5V133.6z"/>
	<path class="st3" d="M307.4,142v-17.3h6.8c2.3,0,4.1,0.4,5.3,1.2s1.9,2,1.9,3.6c0,0.8-0.2,1.5-0.7,2.2c-0.5,0.6-1.2,1.1-2.1,1.4
		c1.1,0.3,1.9,0.8,2.5,1.5c0.6,0.7,0.9,1.6,0.9,2.5c0,1.6-0.6,2.9-1.8,3.7c-1.2,0.8-2.8,1.3-4.9,1.3L307.4,142L307.4,142z
		 M310.5,132h3.7c1.3,0,2.3-0.2,3-0.6s1-1,1-1.8c0-0.8-0.3-1.4-1-1.9c-0.7-0.4-1.7-0.6-3-0.6h-3.7L310.5,132L310.5,132z
		 M310.5,134.4v5.2h4.8c1.2,0,2-0.2,2.6-0.7c0.6-0.4,0.9-1.1,0.9-1.9c0-0.8-0.3-1.5-0.9-1.9c-0.6-0.4-1.5-0.7-2.6-0.7L310.5,134.4
		L310.5,134.4z"/>
	<path class="st3" d="M325.3,133.2c0-2.6,0.7-4.7,2.1-6.3s3.3-2.5,5.7-2.5c2.4,0,4.3,0.8,5.7,2.5c1.4,1.7,2.1,3.8,2.1,6.3v0.4
		c0,2.6-0.7,4.7-2.1,6.3c-1.4,1.6-3.3,2.5-5.7,2.5s-4.3-0.8-5.7-2.5c-1.4-1.6-2.1-3.8-2.1-6.3V133.2z M328.4,133.6
		c0,1.8,0.4,3.4,1.2,4.6s1.9,1.8,3.5,1.8c1.5,0,2.6-0.6,3.4-1.8s1.2-2.7,1.2-4.6v-0.4c0-1.8-0.4-3.3-1.2-4.5
		c-0.8-1.2-1.9-1.8-3.5-1.8c-1.5,0-2.6,0.6-3.4,1.8c-0.8,1.2-1.2,2.7-1.2,4.5V133.6z"/>
	<path class="st3" d="M356.3,134.5h-0.9v7.5h-3.2v-7.5h-0.9l-4.9,7.5h-4l6.5-9.2l-5.9-8.2h3.8l4.6,7.1h0.8v-7.1h3.2v7.1h0.9l4.6-7.1
		h3.8l-5.9,8.2l6.5,9.2h-4L356.3,134.5z"/>
	<path class="st3" d="M368.5,139.6c0.8,0,1.4-0.7,1.8-2.1c0.4-1.4,0.7-3.5,0.8-6.3l0.4-6.5H383v14.9h2.3v8.2h-3.2V142h-12.2v5.7
		h-3.2v-8.2L368.5,139.6L368.5,139.6z M374.3,131.2c-0.1,2-0.3,3.7-0.5,5.1s-0.5,2.4-1,3.3h7.1v-12.1h-5.4L374.3,131.2z"/>
	<path class="st3" d="M395.9,142.4c-2.5,0-4.4-0.8-5.8-2.4s-2.1-3.7-2.1-6.3V133c0-2.5,0.7-4.5,2.2-6.2c1.4-1.6,3.2-2.4,5.3-2.4
		c2.3,0,4.1,0.7,5.2,2.2s1.7,3.4,1.7,5.8v1.7h-11.1l0,0.1c0,1.7,0.4,3.2,1.2,4.2s1.9,1.6,3.5,1.6c1.1,0,2-0.2,2.8-0.5
		s1.5-0.7,2.1-1.3l1.2,2.1c-0.6,0.6-1.4,1.1-2.5,1.5C398.6,142.2,397.3,142.4,395.9,142.4z M395.4,126.9c-1.1,0-2,0.4-2.7,1.3
		c-0.7,0.9-1.2,1.9-1.3,3.3l0,0.1h7.8v-0.3c0-1.3-0.3-2.3-0.9-3.1C397.7,127.3,396.7,126.9,395.4,126.9z"/>
	<path class="st3" d="M419.9,142h-3.2v-7.4h-7.7v7.4h-3.2v-17.3h3.2v7.5h7.7v-7.5h3.2V142z"/>
	<path class="st3" d="M435.5,124.7h3.2V142h-3.2v-12.3l-0.1,0l-7.7,12.3h-3.1v-17.3h3.1V137l0.1,0L435.5,124.7z"/>
	<path class="st3" d="M450.4,142.4c-2.5,0-4.4-0.8-5.8-2.4s-2.1-3.7-2.1-6.3V133c0-2.5,0.7-4.5,2.2-6.2c1.4-1.6,3.2-2.4,5.3-2.4
		c2.3,0,4.1,0.7,5.2,2.2s1.7,3.4,1.7,5.8v1.7h-11.1l0,0.1c0,1.7,0.4,3.2,1.2,4.2s1.9,1.6,3.5,1.6c1.1,0,2-0.2,2.8-0.5
		s1.5-0.7,2.1-1.3l1.2,2.1c-0.6,0.6-1.4,1.1-2.5,1.5S451.8,142.4,450.4,142.4z M449.9,126.9c-1.1,0-2,0.4-2.7,1.3
		c-0.7,0.9-1.2,1.9-1.3,3.3l0,0.1h7.8v-0.3c0-1.3-0.3-2.3-0.9-3.1C452.1,127.3,451.2,126.9,449.9,126.9z"/>
</g>
</svg>
