<svg id="Слой_1" xmlns="http://www.w3.org/2000/svg" viewBox="0 0 555.8 197.8"><style>.st1{fill:none;stroke:#fff;stroke-miterlimit:10}</style><path d="M35.5 96.3c.7 0 1.1.3 1.1 1s-.4 1.1-1.1 1.1H2.3c-.5 0-.8-.1-.9-.3-.1-.2-.2-.4-.2-.7V44c0-.7.4-1 1.1-1 .7 0 1 .3 1 1v52.3h32.2zM44.6 44c0-.7.4-1 1.1-1 .7 0 1 .3 1 1v53.4c0 .7-.3 1.1-1 1.1s-1.1-.4-1.1-1.1V44zm51.7-1c.8 0 1.2.3 1.2 1s-.4 1.1-1.2 1.1H77.6v52.3c0 .7-.3 1.1-1 1.1s-1.1-.4-1.1-1.1V45.1H56.6c-.7 0-1-.4-1-1.1 0-.7.3-1 1-1h39.7zm50.2.5c.1-.4.3-.6.5-.7.2-.1.5-.1.8.1.7.2.9.6.7 1.3L126 98c-.2.4-.5.6-1 .6-.2.1-.5 0-.7-.1s-.3-.3-.4-.7l-22.4-53.5c-.3-.7-.1-1.1.6-1.3.6-.3 1.1-.2 1.3.4L125 94.9l21.5-51.4zm9.8.5c0-.7.4-1 1.1-1 .7 0 1 .3 1 1v53.4c0 .7-.3 1.1-1 1.1s-1.1-.4-1.1-1.1V44zm57.5 0c0-.7.3-1 1-1s1.1.3 1.1 1v53.6c-.1.5-.4.8-1 .8-.3 0-.5-.1-.7-.1s-.3-.2-.4-.3l-41.2-50.7v50.1c0 .7-.3 1.1-1 1.1s-1.1-.4-1.1-1.1V44c0-.3.1-.6.2-.8.1-.2.3-.3.7-.3.2 0 .4 0 .5.1s.2.2.4.3L213.9 94l-.1-50zm51.5-1c.8 0 1.2.3 1.2 1s-.4 1.1-1.2 1.1h-35.1v23.6H259c.8 0 1.2.4 1.2 1.1 0 .7-.4 1-1.2 1h-28.8v25.6h35.9c.8 0 1.2.3 1.2 1s-.4 1.1-1.2 1.1h-37.7v-.1c-.2-.1-.3-.5-.3-.9V44c0-.3 0-.5.1-.6l.1-.1c.1-.1.2-.2.3-.2.2-.1.4-.1.7-.1h36zm52.4 1c0-.7.3-1 1-1s1.1.3 1.1 1v53.6c-.1.5-.4.8-1 .8-.3 0-.5-.1-.7-.1s-.3-.2-.4-.3l-41.2-50.7v50.1c0 .7-.3 1.1-1 1.1s-1.1-.4-1.1-1.1V44c0-.3.1-.6.2-.8.1-.2.3-.3.7-.3.2 0 .4 0 .5.1s.2.2.4.3L317.8 94l-.1-50zm48.8-.6c.4-.4 1-.5 1.6-.1.4.5.5 1 .1 1.5L348.3 66 374 96.5c.5.6.4 1.1-.1 1.6-.6.4-1.1.4-1.5-.1l-25.5-30.5-13 13.7v16.2c0 .7-.3 1.1-1 1.1s-1.1-.4-1.1-1.1V44c0-.7.4-1 1.1-1 .7 0 1 .3 1 1v34.3l32.6-34.9zm13.3 27.4c0-2.6.3-5.1 1-7.5s1.6-4.7 2.9-6.8c1.2-2.1 2.7-4 4.4-5.7s3.6-3.2 5.7-4.4c2.1-1.2 4.4-2.2 6.8-2.9 2.4-.7 4.9-1 7.5-1 2.6 0 5.1.3 7.5 1 2.4.7 4.7 1.6 6.8 2.9 2.1 1.2 4 2.7 5.7 4.4s3.2 3.6 4.4 5.7c1.2 2.1 2.2 4.4 2.9 6.8.7 2.4 1 4.9 1 7.5s-.3 5.1-1 7.5c-.7 2.4-1.6 4.7-2.9 6.8-1.2 2.1-2.7 4-4.4 5.7s-3.6 3.2-5.7 4.4c-2.1 1.2-4.4 2.2-6.8 2.9-2.4.7-4.9 1-7.5 1-2.6 0-5.1-.3-7.5-1-2.4-.7-4.7-1.6-6.8-2.9s-4-2.7-5.7-4.4-3.2-3.6-4.4-5.7c-1.2-2.1-2.2-4.3-2.9-6.8-.7-2.4-1-4.9-1-7.5zm2.2 0c0 2.4.3 4.7.9 6.9.6 2.2 1.5 4.3 2.6 6.2 1.1 1.9 2.5 3.7 4.1 5.3s3.3 2.9 5.3 4.1c1.9 1.1 4 2 6.2 2.6s4.5.9 6.9.9 4.7-.3 6.9-.9c2.2-.6 4.3-1.5 6.2-2.6 1.9-1.1 3.7-2.5 5.3-4.1 1.6-1.6 3-3.3 4.1-5.3 1.1-1.9 2-4 2.6-6.2.6-2.2.9-4.5.9-6.9s-.3-4.7-.9-6.9c-.6-2.2-1.5-4.3-2.6-6.2-1.1-1.9-2.5-3.7-4.1-5.3-1.6-1.6-3.4-3-5.3-4.1-1.9-1.1-4-2-6.2-2.7-2.2-.6-4.5-.9-6.9-.9s-4.7.3-6.9.9c-2.2.6-4.3 1.5-6.2 2.7-1.9 1.1-3.7 2.5-5.3 4.1-1.6 1.6-2.9 3.4-4.1 5.3-1.1 1.9-2 4-2.6 6.2-.6 2.2-.9 4.5-.9 6.9z" fill="#fffdfd"/><circle class="st1" cx="457.4" cy="98.4" r="98.4"/><circle class="st1" cx="359.4" cy="99.4" r="98.4"/><path class="st1" d="M359 99.5h99l-50.5-85.9z"/></svg>